<svg width="464" height="124" viewBox="0 0 464 124" fill="none" xmlns="http://www.w3.org/2000/svg">
<path d="M12.3281 42L22.6623 50.8289C23.2758 51.353 23.6294 52.1222 23.6294 52.9323V59.5862L13.2953 50.7573C12.6817 50.2332 12.3281 49.464 12.3281 48.6539V42Z" fill="white"/>
<path d="M12.3281 82L22.6623 73.1711C23.2758 72.647 23.6294 71.8778 23.6294 71.0677V64.4138L13.2953 73.2427C12.6817 73.7668 12.3281 74.536 12.3281 75.3461V82Z" fill="white"/>
<path d="M0 51.3104L10.1936 59.9705C10.6878 60.3904 11.3137 60.6207 11.9603 60.6207H20.181L10.0125 51.9626C9.51795 51.5414 8.89118 51.3104 8.24346 51.3104H0Z" fill="white"/>
<path d="M0 72.6897L10.1309 64.0345C10.626 63.6115 11.2542 63.3793 11.9034 63.3793H20.2055L10.0119 72.0394C9.51769 72.4593 8.89185 72.6897 8.24517 72.6897H0Z" fill="white"/>
<path d="M37.6724 42L27.3382 50.8289C26.7247 51.353 26.3711 52.1222 26.3711 52.9323V59.5862L36.7052 50.7573C37.3188 50.2332 37.6724 49.464 37.6724 48.6539V42Z" fill="white"/>
<path d="M37.6724 82L27.3382 73.1711C26.7247 72.647 26.3711 71.8778 26.3711 71.0677V64.4138L36.7052 73.2427C37.3188 73.7668 37.6724 74.536 37.6724 75.3461V82Z" fill="white"/>
<path d="M50.0013 51.3103L39.8077 59.9704C39.3135 60.3903 38.6876 60.6206 38.041 60.6206H29.8203L39.9888 51.9625C40.4834 51.5414 41.1101 51.3103 41.7578 51.3103H50.0013Z" fill="white"/>
<path d="M49.9985 72.6898L39.8676 64.0346C39.3725 63.6116 38.7443 63.3794 38.0951 63.3794H29.793L39.9866 72.0395C40.4808 72.4594 41.1066 72.6898 41.7533 72.6898H49.9985Z" fill="white"/>
<path d="M132.775 50.6686C132.114 50.6686 131.56 50.4448 131.112 49.9971C130.664 49.5494 130.441 48.9952 130.441 48.3343C130.441 47.6734 130.664 47.1192 131.112 46.6715C131.56 46.2238 132.114 46 132.775 46C133.415 46 133.959 46.2238 134.406 46.6715C134.854 47.1192 135.078 47.6734 135.078 48.3343C135.078 48.9952 134.854 49.5494 134.406 49.9971C133.959 50.4448 133.415 50.6686 132.775 50.6686Z" fill="white"/>
<path d="M134.568 53.0029V70.6221H130.922V53.0029H134.568Z" fill="white"/>
<path fill-rule="evenodd" clip-rule="evenodd" d="M144.407 53.5465C143.341 54.1008 142.498 54.783 141.88 55.593V53.0029H138.234V79H141.88V68.064C142.541 68.874 143.394 69.5562 144.439 70.1105C145.483 70.6434 146.678 70.9099 148.021 70.9099C149.556 70.9099 150.953 70.5262 152.211 69.7587C153.49 68.97 154.492 67.8828 155.217 66.4971C155.942 65.0901 156.304 63.5019 156.304 61.7326C156.304 59.9632 155.942 58.3963 155.217 57.032C154.492 55.6676 153.49 54.6124 152.211 53.8663C150.953 53.0988 149.556 52.7151 148.021 52.7151C146.678 52.7151 145.473 52.9923 144.407 53.5465ZM151.827 58.5988C152.339 59.4729 152.594 60.5174 152.594 61.7326C152.594 62.9477 152.339 64.0136 151.827 64.9302C151.336 65.8469 150.675 66.5504 149.844 67.0407C149.034 67.5097 148.159 67.7442 147.221 67.7442C146.304 67.7442 145.43 67.5097 144.599 67.0407C143.788 66.5717 143.127 65.8895 142.616 64.9942C142.125 64.0775 141.88 63.0116 141.88 61.7965C141.88 60.5814 142.125 59.5262 142.616 58.6308C143.127 57.7355 143.788 57.0533 144.599 56.5843C145.43 56.1153 146.304 55.8808 147.221 55.8808C148.159 55.8808 149.034 56.1153 149.844 56.5843C150.675 57.032 151.336 57.7035 151.827 58.5988Z" fill="white"/>
<path d="M165.188 70.9099C163.802 70.9099 162.555 70.6647 161.446 70.1744C160.359 69.6628 159.495 68.9806 158.856 68.1279C158.216 67.2539 157.875 66.2839 157.832 65.218H161.606C161.67 65.9641 162.022 66.593 162.662 67.1047C163.323 67.595 164.144 67.8401 165.124 67.8401C166.148 67.8401 166.937 67.6483 167.491 67.2645C168.067 66.8595 168.355 66.3479 168.355 65.7297C168.355 65.0688 168.035 64.5785 167.395 64.2587C166.777 63.939 165.785 63.5872 164.421 63.2035C163.099 62.8411 162.022 62.4893 161.19 62.1483C160.359 61.8072 159.634 61.2849 159.016 60.5814C158.419 59.8779 158.12 58.9506 158.12 57.7994C158.12 56.8614 158.397 56.0087 158.952 55.2413C159.506 54.4525 160.295 53.8343 161.318 53.3866C162.363 52.939 163.557 52.7151 164.9 52.7151C166.905 52.7151 168.515 53.2267 169.73 54.25C170.967 55.2519 171.628 56.6269 171.713 58.375H168.067C168.003 57.5862 167.683 56.9574 167.107 56.4884C166.532 56.0194 165.753 55.7849 164.773 55.7849C163.813 55.7849 163.077 55.9661 162.566 56.3285C162.054 56.6909 161.798 57.1705 161.798 57.7674C161.798 58.2364 161.969 58.6308 162.31 58.9506C162.651 59.2704 163.067 59.5262 163.557 59.718C164.048 59.8886 164.773 60.1124 165.732 60.3895C167.011 60.7306 168.056 61.0824 168.866 61.4448C169.698 61.7859 170.412 62.2975 171.009 62.9797C171.606 63.6618 171.915 64.5678 171.937 65.6977C171.937 66.6996 171.66 67.595 171.105 68.3837C170.551 69.1725 169.762 69.7907 168.738 70.2384C167.736 70.686 166.553 70.9099 165.188 70.9099Z" fill="white"/>
<path d="M219.449 53.5785C218.361 53.0029 217.125 52.7151 215.739 52.7151C214.438 52.7151 213.223 53.0349 212.093 53.6744C210.963 54.2926 210.131 55.1347 209.598 56.2006C209.001 55.0707 208.148 54.2074 207.039 53.6105C205.931 53.0136 204.673 52.7151 203.265 52.7151C202.221 52.7151 201.24 52.9176 200.323 53.3227C199.406 53.7277 198.649 54.2926 198.052 55.0174V53.0029H194.406V70.6221H198.052V60.7733C198.052 59.1957 198.447 57.9913 199.235 57.1599C200.046 56.3072 201.133 55.8808 202.498 55.8808C203.862 55.8808 204.939 56.3072 205.728 57.1599C206.517 57.9913 206.911 59.1957 206.911 60.7733V70.6221H210.526V60.7733C210.526 59.1957 210.92 57.9913 211.709 57.1599C212.519 56.3072 213.607 55.8808 214.971 55.8808C216.336 55.8808 217.413 56.3072 218.202 57.1599C218.99 57.9913 219.385 59.1957 219.385 60.7733V70.6221H222.999V60.2297C222.999 58.6308 222.679 57.2665 222.04 56.1366C221.421 55.0068 220.558 54.1541 219.449 53.5785Z" fill="white"/>
<path d="M190.718 70.6221V53.0029H187.072V62.8198C187.072 64.3973 186.666 65.6124 185.856 66.4651C185.067 67.2965 183.991 67.7122 182.626 67.7122C181.261 67.7122 180.185 67.2965 179.396 66.4651C178.607 65.6124 178.212 64.3973 178.212 62.8198V53.0029H174.598V63.3634C174.598 64.9622 174.907 66.3265 175.526 67.4564C176.165 68.5862 177.029 69.4389 178.116 70.0145C179.225 70.5901 180.472 70.8779 181.858 70.8779C182.903 70.8779 183.884 70.6754 184.801 70.2703C185.739 69.844 186.496 69.2684 187.072 68.5436V70.6221H190.718Z" fill="white"/>
<path fill-rule="evenodd" clip-rule="evenodd" d="M114.779 69.7907C116.122 70.5368 117.625 70.9099 119.288 70.9099C120.973 70.9099 122.508 70.5368 123.894 69.7907C125.301 69.0233 126.41 67.9467 127.22 66.561C128.03 65.1754 128.435 63.5872 128.435 61.7965C128.435 60.0058 128.041 58.4176 127.252 57.032C126.463 55.6463 125.386 54.5804 124.022 53.8343C122.657 53.0882 121.133 52.7151 119.448 52.7151C117.764 52.7151 116.239 53.0882 114.874 53.8343C113.51 54.5804 112.433 55.6463 111.644 57.032C110.855 58.4176 110.461 60.0058 110.461 61.7965C110.461 63.6085 110.845 65.2074 111.612 66.593C112.38 67.9574 113.435 69.0233 114.779 69.7907ZM121.911 67.0727C121.101 67.5203 120.226 67.7442 119.288 67.7442C117.817 67.7442 116.591 67.2326 115.61 66.2093C114.651 65.1647 114.171 63.6938 114.171 61.7965C114.171 60.5174 114.405 59.4409 114.874 58.5669C115.344 57.6715 115.973 57 116.761 56.5523C117.572 56.1047 118.446 55.8808 119.384 55.8808C120.322 55.8808 121.196 56.1047 122.007 56.5523C122.817 57 123.467 57.6715 123.958 58.5669C124.448 59.4409 124.693 60.5174 124.693 61.7965C124.693 63.0756 124.437 64.1628 123.926 65.0581C123.414 65.9535 122.742 66.625 121.911 67.0727Z" fill="white"/>
<path fill-rule="evenodd" clip-rule="evenodd" d="M95.5755 69.8314C95.5508 69.818 95.526 69.8044 95.5014 69.7907C94.1581 69.0233 93.1026 67.9574 92.335 66.593C91.5674 65.2074 91.1836 63.6085 91.1836 61.7965C91.1836 60.0058 91.5781 58.4176 92.367 57.032C93.1559 55.6463 94.2327 54.5804 95.5973 53.8343C96.962 53.0882 98.4865 52.7151 100.171 52.7151C101.855 52.7151 103.38 53.0882 104.745 53.8343C106.109 54.5804 107.186 55.6463 107.975 57.032C108.764 58.4176 109.158 60.0058 109.158 61.7965C109.158 63.5872 108.753 65.1754 107.943 66.561C107.133 67.9467 106.024 69.0233 104.617 69.7907C103.425 70.4323 102.123 70.7981 100.71 70.8879C102.441 71.6797 105.074 72.319 106.552 72.6779C107.185 72.8316 107.606 72.9338 107.655 72.9747L107.657 72.9752V76.6231H94.3735V72.9752H102.028C100.081 72.5355 97.4363 71.0922 95.5755 69.8314ZM100.011 67.7442C100.949 67.7442 101.823 67.5203 102.634 67.0727C103.465 66.625 104.137 65.9535 104.649 65.0581C105.16 64.1628 105.416 63.0756 105.416 61.7965C105.416 60.5174 105.171 59.4409 104.681 58.5669C104.19 57.6715 103.54 57 102.73 56.5523C101.919 56.1047 101.045 55.8808 100.107 55.8808C99.1688 55.8808 98.2946 56.1047 97.4843 56.5523C96.6954 57 96.0664 57.6715 95.5973 58.5669C95.1282 59.4409 94.8937 60.5174 94.8937 61.7965C94.8937 63.6938 95.3734 65.1647 96.3329 66.2093C97.3138 67.2326 98.5398 67.7442 100.011 67.7442Z" fill="white"/>
<path fill-rule="evenodd" clip-rule="evenodd" d="M76.2279 69.7907C77.5712 70.5368 79.0744 70.9099 80.7376 70.9099C82.422 70.9099 83.9572 70.5368 85.3432 69.7907C86.7504 69.0233 87.8592 67.9467 88.6694 66.561C89.4797 65.1754 89.8848 63.5872 89.8848 61.7965C89.8848 60.0058 89.4903 58.4176 88.7014 57.032C87.9125 55.6463 86.8357 54.5804 85.4711 53.8343C84.1065 53.0882 82.5819 52.7151 80.8975 52.7151C79.213 52.7151 77.6885 53.0882 76.3239 53.8343C74.9593 54.5804 73.8825 55.6463 73.0936 57.032C72.3047 58.4176 71.9102 60.0058 71.9102 61.7965C71.9102 63.6085 72.294 65.2074 73.0616 66.593C73.8292 67.9574 74.8846 69.0233 76.2279 69.7907ZM83.3602 67.0727C82.55 67.5203 81.6757 67.7442 80.7376 67.7442C79.2663 67.7442 78.0403 67.2326 77.0595 66.2093C76.1 65.1647 75.6203 63.6938 75.6203 61.7965C75.6203 60.5174 75.8548 59.4409 76.3239 58.5669C76.793 57.6715 77.422 57 78.2109 56.5523C79.0211 56.1047 79.8953 55.8808 80.8335 55.8808C81.7717 55.8808 82.6459 56.1047 83.4561 56.5523C84.2664 57 84.9167 57.6715 85.4071 58.5669C85.8975 59.4409 86.1427 60.5174 86.1427 61.7965C86.1427 63.0756 85.8869 64.1628 85.3751 65.0581C84.8634 65.9535 84.1918 66.625 83.3602 67.0727Z" fill="white"/>
<path d="M63.6461 67.6802H71.1621V70.6221H60V48.3983H63.6461V67.6802Z" fill="white"/>
</svg>
